<svg id="Capa_1" data-name="Capa 1" xmlns="http://www.w3.org/2000/svg" viewBox="0 0 118.97 53.7"><path d="M119.2,65.6C110,52.1,85.8,51.3,82.5,51.2L67.8,39.4a1.42,1.42,0,0,0-.6-.2H41.7a1.07,1.07,0,0,0-.6.2l-9.3,8-6.6.3-2.7-6.3h3.1a1.23,1.23,0,0,0,.8-.4,1,1,0,0,0,.1-.9l-2.9-7.4a1.2,1.2,0,0,0-1-.7H2.2a1,1,0,0,0-.9.6A6.56,6.56,0,0,0,.8,38a6.76,6.76,0,0,0,3.6,3.4c.1,0,.2.1.3.1h6.1l2.6,6.8-1.7.1a.76.76,0,0,0-.5.2l-9.5,7a.91.91,0,0,0-.4.8V77.7a.94.94,0,0,0,1,1h10a12.66,12.66,0,0,0,22.5.1H35l47.5.2a12.54,12.54,0,0,0,22.2,0l13.7.1a1,1,0,0,0,1-1V66.2A1.42,1.42,0,0,0,119.2,65.6ZM42.1,41.2H66.9L79.4,51.3l-43.2.9-2.7-3.6ZM4.9,39.4a4.52,4.52,0,0,1-2.2-2.2A4,4,0,0,1,2.9,34H22l2.1,5.4H4.9Zm8.1,2h7.3L23,47.8l-7.5.3ZM23.6,83.5a9.91,9.91,0,1,1,0-19.8,9.91,9.91,0,1,1,0,19.8Zm79.6-6a.1.1,0,0,1-.1.1,9.65,9.65,0,1,1,.9-3.8A9.09,9.09,0,0,1,103.2,77.5Zm14.2-.4L105.5,77a11.27,11.27,0,0,0,.5-3.2,12.41,12.41,0,0,0-24.8,0,11.27,11.27,0,0,0,.5,3.2l-46.1-.3a10.55,10.55,0,0,0,.4-3.1A12.17,12.17,0,0,0,23.6,61.7,12.17,12.17,0,0,0,11.2,73.6a15.44,15.44,0,0,0,.4,3H3.3V56.8l8.8-6.5,2.3-.1a.6.6,0,0,0,.4.1h.1l9.6-.5a.37.37,0,0,0,.3-.1l6.7-.3,3.3,4.4a.91.91,0,0,0,.8.4l46.5-1c.5,0,26.1.2,35.3,13.3Z" transform="translate(-0.43 -32)"/><path d="M93.6,69.5a4.1,4.1,0,1,0,4.1,4.1A4.06,4.06,0,0,0,93.6,69.5Zm0,6.2a2.1,2.1,0,1,1,2.1-2.1A2.05,2.05,0,0,1,93.6,75.7Z" transform="translate(-0.43 -32)"/><path d="M23.6,69.2a4.1,4.1,0,1,0,4.1,4.1A4.06,4.06,0,0,0,23.6,69.2Zm0,6.2a2.1,2.1,0,1,1,2.1-2.1A2.05,2.05,0,0,1,23.6,75.4Z" transform="translate(-0.43 -32)"/><path d="M43.3,59.1H36.2a1,1,0,0,0,0,2h7.1a1,1,0,0,0,0-2Z" transform="translate(-0.43 -32)"/><path d="M72.6,59.1H68.1a1,1,0,0,0,0,2h4.5a1,1,0,0,0,0-2Z" transform="translate(-0.43 -32)"/><path d="M78.9,59.1H74.8a1,1,0,0,0,0,2h4.1a1,1,0,0,0,0-2Z" transform="translate(-0.43 -32)"/></svg>