<?xml version="1.0" encoding="utf-8"?>
<!-- Generator: Adobe Illustrator 26.0.0, SVG Export Plug-In . SVG Version: 6.00 Build 0)  -->
<svg version="1.1" id="Capa_1" xmlns="http://www.w3.org/2000/svg" xmlns:xlink="http://www.w3.org/1999/xlink" x="0px" y="0px"
	 viewBox="0 0 120 120" style="enable-background:new 0 0 120 120;" xml:space="preserve">
<g>
	<path d="M60,54.1c14.7,0,26.6-11.9,26.6-26.6S74.7,0.9,60,0.9S33.4,12.8,33.4,27.5S45.3,54.1,60,54.1z M60,2.9
		c13.6,0,24.6,11,24.6,24.6S73.6,52.1,60,52.1s-24.6-11-24.6-24.6S46.4,2.9,60,2.9z"/>
	<path d="M60,66.5c-22.9,0-41.5,11.8-41.5,26.3s18.6,26.3,41.5,26.3s41.5-11.8,41.5-26.3S82.9,66.5,60,66.5z M60,117.1
		c-21.8,0-39.5-10.9-39.5-24.3c0-13.4,17.7-24.3,39.5-24.3s39.5,10.9,39.5,24.3C99.5,106.2,81.8,117.1,60,117.1z"/>
</g>
</svg>
