<svg id="Capa_1" data-name="Capa 1" xmlns="http://www.w3.org/2000/svg" viewBox="0 0 117.29 105.19"><path d="M116.5,27c-3.4-9.9-11.6-17.4-21-19.1C83,5.4,68,12.9,60.3,21.1l-.5.5-.4-.4c-13.7-12.7-34.8-20-48.8-6-4.8,4.8-8,11.9-9,19.9-2.9,32,23,60,48.3,72.6,3.5,1.6,6.3,3,9,4.5.1,0,.1.1.2.1a1.9,1.9,0,0,0,.9.3,2.12,2.12,0,0,0,1.7-.7,2.1,2.1,0,0,1,1.1-.7l.2-.1h0c20-10.4,53.7-33.3,55.6-69.5A35,35,0,0,0,116.5,27Zm.1,14.4c-1.9,35.3-35,57.7-54.6,67.9l-.2.1a5.35,5.35,0,0,0-1.7,1.2.76.76,0,0,0-.5-.2c-2.8-1.5-5.5-2.9-9-4.4C26.1,93.7.8,66.3,3.6,35.3c1-7.5,4-14.2,8.5-18.7,13.1-13.1,33-6,46,6l1.1,1.1a1,1,0,0,0,1.4,0l1.3-1.2c7.5-8,22-15,33.4-12.7,8.7,1.6,16.3,8.5,19.4,17.8A35,35,0,0,1,116.6,41.4Z" transform="translate(-1.38 -7.41)"/></svg>