<?xml version="1.0" encoding="utf-8"?>
<!-- Generator: Adobe Illustrator 26.0.0, SVG Export Plug-In . SVG Version: 6.00 Build 0)  -->
<svg version="1.1" id="Capa_1" xmlns="http://www.w3.org/2000/svg" xmlns:xlink="http://www.w3.org/1999/xlink" x="0px" y="0px"
	 viewBox="0 0 120 120" style="enable-background:new 0 0 120 120;" xml:space="preserve">
<g>
	<path d="M55.6,1.8C27.7,1.8,5,24.5,5,52.4C5,80.3,27.7,103,55.6,103c27.9,0,50.6-22.7,50.6-50.6C106.2,24.5,83.5,1.8,55.6,1.8z
		 M55.6,101C28.8,101,7,79.2,7,52.4C7,25.6,28.8,3.8,55.6,3.8c26.8,0,48.6,21.8,48.6,48.6C104.2,79.2,82.4,101,55.6,101z"/>
	<path d="M114.8,116.5l-17.2-20c-0.4-0.4-1-0.5-1.4-0.1c-0.4,0.4-0.5,1-0.1,1.4l17.2,20c0.2,0.2,0.5,0.3,0.8,0.3
		c0.2,0,0.5-0.1,0.7-0.2C115.1,117.6,115.1,117,114.8,116.5z"/>
</g>
</svg>
