<svg width="9" height="13" viewBox="0 0 9 13" fill="none" xmlns="http://www.w3.org/2000/svg">
<path d="M4.24207 5.6834C4.26581 5.63676 4.30257 5.59749 4.34817 5.57003C4.39378 5.54256 4.44642 5.52801 4.50013 5.52801C4.55384 5.52801 4.60648 5.54256 4.65208 5.57003C4.69769 5.59749 4.73444 5.63676 4.75819 5.6834L5.61694 7.36772C5.63755 7.40826 5.66805 7.44334 5.70579 7.46993C5.74353 7.49651 5.78739 7.51381 5.83358 7.52033L7.75391 7.79047C7.80699 7.79798 7.85684 7.8197 7.89784 7.85319C7.93883 7.88667 7.96934 7.93059 7.98592 7.97997C8.0025 8.02936 8.00448 8.08224 7.99165 8.13266C7.97881 8.18308 7.95167 8.22902 7.91329 8.2653L6.52375 9.57644C6.49033 9.60794 6.46533 9.64683 6.45089 9.68977C6.43646 9.73271 6.43303 9.7784 6.44089 9.8229L6.76886 11.6743C6.77788 11.7255 6.77195 11.7781 6.75173 11.8262C6.73151 11.8743 6.69781 11.9159 6.65442 11.9465C6.61104 11.977 6.55971 11.9952 6.50622 11.9989C6.45273 12.0027 6.39921 11.9919 6.35171 11.9678L4.63419 11.0939C4.59289 11.0729 4.54693 11.0619 4.50027 11.0619C4.45361 11.0619 4.40765 11.0729 4.36635 11.0939L2.64884 11.9678C2.60132 11.9921 2.54773 12.003 2.49415 11.9993C2.44056 11.9956 2.38912 11.9774 2.34564 11.9469C2.30216 11.9163 2.26839 11.8746 2.24815 11.8264C2.22791 11.7783 2.22201 11.7256 2.23111 11.6743L2.55908 9.8229C2.56698 9.77842 2.56359 9.73274 2.54921 9.68981C2.53482 9.64687 2.50988 9.60797 2.47651 9.57644L1.08697 8.2653C1.0485 8.22903 1.02129 8.18307 1.0084 8.13261C0.995521 8.08215 0.997482 8.02921 1.01407 7.97978C1.03065 7.93034 1.06119 7.88638 1.10224 7.85288C1.14329 7.81937 1.19321 7.79766 1.24635 7.79019L3.16668 7.52005C3.21284 7.51356 3.25668 7.49631 3.29442 7.46977C3.33216 7.44323 3.36267 7.40821 3.38331 7.36772L4.24207 5.6834V5.6834ZM7.95242 1H1.04784V3.78492L4.50013 5.17738L7.95242 3.78492V1Z" stroke="black" stroke-linecap="round" stroke-linejoin="round"/>
</svg>
